# Blender 4.3.0
# www.blender.org
mtllib road2.mtl
o rua_Cubo
v 16.744492 0.849350 1.604423
v 16.744492 1.150650 1.604423
v 16.744492 0.849350 -2.734882
v 16.744492 1.150650 -2.734882
v -14.945755 0.849350 1.604423
v -14.945755 1.150650 1.604423
v -14.945755 0.849350 -2.734882
v -14.945755 1.150650 -2.734882
vn 1.0000 -0.0000 -0.0000
vn -0.0000 -0.0000 -1.0000
vn -1.0000 -0.0000 -0.0000
vn -0.0000 -0.0000 1.0000
vn -0.0000 -1.0000 -0.0000
vn -0.0000 1.0000 -0.0000
vt 2.338983 0.969096
vt -1.338983 0.030904
vt 2.338983 0.030904
vt -1.338983 0.969096
s 1
usemtl Materiais.001
f 3/1/1 2/2/1 1/3/1
f 7/1/2 4/2/2 3/3/2
f 5/1/3 8/2/3 7/3/3
f 1/1/4 6/2/4 5/3/4
f 1/1/5 7/2/5 3/3/5
f 6/1/6 4/2/6 8/3/6
f 3/1/1 4/4/1 2/2/1
f 7/1/2 8/4/2 4/2/2
f 5/1/3 6/4/3 8/2/3
f 1/1/4 2/4/4 6/2/4
f 1/1/5 5/4/5 7/2/5
f 6/1/6 2/4/6 4/2/6
